<svg width="16" height="16" version="1.1" viewBox="0 0 4.2333 4.2333" xmlns="http://www.w3.org/2000/svg">
 <g transform="translate(135.11 -139.34)">
  <g transform="matrix(.0052521 0 0 .0052521 -134.91 138.97)" fill="none" stroke-width="50.376">
   <path class="st0" d="m622.9 726.5c-120.7 95.1-328.1 108-480.2 69.4-23.6-0.4-75.5-36.8-85.2-58.1-26.4-58.2-23.2-114.5-14.1-178.2 10-69.4 23.6-139.2 35.6-208.3 9.1-52.6 43.9-224.1 110.3-224.1 83.6 0 88.5 167.4 114.5 177.8 23.1-7.1 68.4-15.2 92.5-15.2 132 7.3 194.3 40.6 262.1 143.9 15.3 23.3 85.2 197.7-35.5 292.8zm-169.7-273.1c-39.3 0-246.5 174.9-33.9 174.9 169.4 0 73-174.9 33.9-174.9" fill="none" stroke-width="50.376"/>
  </g>
 </g>
</svg>
