<svg width="16" height="16" version="1.1" viewBox="0 0 4.2333 4.2333" xmlns="http://www.w3.org/2000/svg">
 <g transform="translate(135.11 -139.34)">
  <g transform="translate(6.4613 -.20176)">
   <g id="layer1_1_" transform="matrix(.0052521 0 0 .0052521 -141.33 139.29)" fill="#010101" fill-opacity=".30196">
    <path id="path4512-4_1_" class="st0" d="m622.9 726.5c-120.7 95.1-328.1 108-480.2 69.4-23.6-0.4-75.5-36.8-85.2-58.1-26.4-58.2-23.2-114.5-14.1-178.2 10-69.4 23.6-139.2 35.6-208.3 9.1-52.6 43.9-224.1 110.3-224.1 83.6 0 88.5 167.4 114.5 177.8 23.1-7.1 68.4-15.2 92.5-15.2 132 7.3 194.3 40.6 262.1 143.9 15.3 23.3 85.2 197.7-35.5 292.8zm-169.7-273.1c-39.3 0-246.5 174.9-33.9 174.9 169.4 0 73-174.9 33.9-174.9" fill="#010101" fill-opacity=".30196"/>
   </g>
   <g transform="matrix(.0052521 0 0 .0052521 -141.41 139.06)" fill="#fff">
    <path class="st0" d="m622.9 726.5c-120.7 95.1-328.1 108-480.2 69.4-23.6-0.4-75.5-36.8-85.2-58.1-26.4-58.2-23.2-114.5-14.1-178.2 10-69.4 23.6-139.2 35.6-208.3 9.1-52.6 43.9-224.1 110.3-224.1 83.6 0 88.5 167.4 114.5 177.8 23.1-7.1 68.4-15.2 92.5-15.2 132 7.3 194.3 40.6 262.1 143.9 15.3 23.3 85.2 197.7-35.5 292.8zm-169.7-273.1c-39.3 0-246.5 174.9-33.9 174.9 169.4 0 73-174.9 33.9-174.9" fill="#fff"/>
   </g>
  </g>
  <rect x="-142.94" y="138.5" width=".12599" height=".27718" rx=".60105" ry=".27718" fill="#010101" fill-opacity=".30196"/>
  <rect x="-142.99" y="139.03" width=".10079" height=".075595" rx=".60105" ry=".075595" fill="#010101" fill-opacity=".30196"/>
 </g>
 <style type="text/css">.st0{fill:#E44240;}</style>
</svg>
